<?xml version="1.0" encoding="UTF-8"?><svg id="Layer_1" xmlns="http://www.w3.org/2000/svg" xmlns:xlink="http://www.w3.org/1999/xlink" viewBox="0 0 48 72.6"><defs><style>.cls-1{clip-path:url(#clippath);}.cls-2{fill:none;}.cls-2,.cls-3{stroke-width:0px;}.cls-3{fill:#fff;}</style><clipPath id="clippath"><rect class="cls-2" y="0" width="48" height="72.6"/></clipPath></defs><g class="cls-1"><path class="cls-3" d="M14.44,72.6c.02-.49.05-.98.05-1.48,0-11.48,0-22.97,0-34.45,0-.93.04-1.85.07-2.78,0-.03.02-.06.04-.12h33.33c-.11-.13-.17-.23-.25-.3-.31-.3-.64-.58-.94-.89-.44-.45-.84-.94-1.28-1.39-.73-.74-1.49-1.44-2.22-2.18-.71-.71-1.4-1.44-2.1-2.16-.12-.12-.27-.2-.38-.33-.43-.46-.83-.94-1.28-1.39-.69-.69-1.4-1.36-2.09-2.04-.29-.29-.55-.61-.84-.9-.58-.57-1.18-1.13-1.75-1.71-.75-.75-1.48-1.52-2.22-2.27-.39-.4-.8-.8-1.19-1.2-.28-.29-.53-.59-.82-.87-.57-.57-1.16-1.11-1.73-1.68-.55-.55-1.07-1.12-1.61-1.67-.61-.62-1.23-1.23-1.84-1.85-.73-.74-1.44-1.49-2.17-2.23-.85-.86-1.7-1.7-2.55-2.56-.21-.22-.4-.46-.62-.67-.63-.62-1.28-1.23-1.91-1.86-.53-.53-1.04-1.09-1.57-1.62-.58-.59-1.17-1.17-1.75-1.76-.07-.07-.13-.16-.19-.24"/><path class="cls-3" d="M14.63,0c.06.08.12.17.19.24.58.59,1.17,1.17,1.75,1.76.53.54,1.03,1.09,1.57,1.62.63.63,1.28,1.24,1.91,1.86.22.21.4.46.62.67.85.86,1.7,1.7,2.55,2.56.73.74,1.44,1.49,2.17,2.23.61.62,1.23,1.23,1.84,1.85.54.55,1.07,1.12,1.61,1.67.57.57,1.16,1.12,1.73,1.68.28.28.54.59.82.87.39.4.8.8,1.19,1.2.74.76,1.47,1.52,2.22,2.27.58.58,1.18,1.13,1.75,1.71.29.29.55.61.84.9.69.68,1.4,1.35,2.09,2.04.44.45.85.93,1.28,1.39.11.12.26.21.38.33.7.72,1.39,1.45,2.1,2.16.73.73,1.49,1.44,2.22,2.18.44.45.84.93,1.28,1.39.3.31.63.59.94.89.08.08.14.17.25.3H14.6c-.02.06-.04.09-.04.12-.02.93-.07,1.85-.07,2.78,0,11.48,0,22.97,0,34.45,0,.49-.03.98-.05,1.48h-.06c-.17-.46-.34-.92-.51-1.37-.54-1.45-1.08-2.9-1.61-4.36-.46-1.25-.91-2.5-1.36-3.75-.5-1.38-1.01-2.75-1.52-4.12-.48-1.31-.97-2.61-1.45-3.92-.55-1.48-1.1-2.96-1.64-4.44-.45-1.23-.89-2.46-1.35-3.69-.52-1.4-1.05-2.8-1.56-4.21-.5-1.34-.99-2.69-1.48-4.04-.25-.7-.5-1.41-.75-2.11-.19-.54-.37-1.08-.57-1.61-.15-.41-.34-.8-.51-1.21.13-.06.21-.09.29-.13,1.11-.45,2.22-.9,3.33-1.35,1.49-.61,2.98-1.22,4.47-1.83,2-.82,3.99-1.64,5.99-2.45.3-.12.37-.27.37-.58,0-8.63,0-17.26,0-25.89,0-.51.03-1.03.05-1.54.02,0,.04,0,.06,0Z"/></g></svg>