<svg xmlns="http://www.w3.org/2000/svg" style="display: none;">
  <defs>
    <symbol id="send" viewBox="0 0 24 24">
      <path d="m2 21 21-9L2 3v7l15 2-15 2v7Z"/>
    </symbol>
    <symbol id="arrow-right" viewBox="0 0 24 24">
      <path d="m14.2 4.8 6.5 6.5.7.7-.7.7-6.5 6.5-1.4-1.4 4.8-4.8H3v-2h14.6l-4.8-4.8 1.4-1.4Z"/>
    </symbol>
    <symbol id="chevron-right" viewBox="0 0 24 24">
      <path d="M13.6 12 7.8 6.2l1.4-1.4 6.5 6.5.7.7-.7.7-6.5 6.5-1.4-1.4 5.8-5.8Z"/>
    </symbol>
    <symbol id="twitter" viewBox="0 0 24 24">
      <path d="M18.24 2.25h3.31l-7.23 8.26 8.5 11.24h-6.65l-5.21-6.82-5.97 6.82H1.68l7.73-8.84L1.25 2.25h6.83l4.71 6.23 5.45-6.23Zm-1.16 17.52h1.84L7.08 4.13H5.12l11.96 15.64Z"/>
    </symbol>
    <symbol id="linkedin" viewBox="0 0 16 16">
      <path d="M16,16h-3.2v-5.6c0-1.54-.68-2.39-1.89-2.39-1.32,0-2.11.89-2.11,2.39v5.6h-3.2V5.6h3.2v1.17s1-1.76,3.27-1.76,3.93,1.38,3.93,4.24v6.75h0ZM1.95,3.94c-1.08,0-1.95-.88-1.95-1.97S.87,0,1.95,0s1.95.88,1.95,1.97c0,1.09-.87,1.97-1.95,1.97h0ZM0,16h4V5.6H0v10.4Z"/>
    </symbol>
    <symbol id="resume" viewBox="0 0 19 24">
      <defs><style>.cls-1{fill:#000;stroke-width:0px;}</style></defs>
      <path class="cls-1" d="M7.65,0s.07,0,.11,0c.12,0,.24,0,.37,0,.09,0,.18,0,.26,0,.24,0,.48,0,.71,0,.2,0,.4,0,.6,0,.47,0,.94,0,1.41,0,.48,0,.97,0,1.45,0,.42,0,.83,0,1.25,0,.25,0,.5,0,.74,0,.23,0,.47,0,.7,0,.09,0,.17,0,.26,0,.93,0,1.73.18,2.42.84.7.7,1,1.52,1.01,2.5,0,.07,0,.14,0,.21,0,.08,0,.15,0,.23,0,.21,0,.41,0,.62,0,.22,0,.45,0,.67,0,.44,0,.88,0,1.32,0,.36,0,.71,0,1.07,0,.05,0,.1,0,.15,0,.1,0,.21,0,.31,0,.97,0,1.94,0,2.91,0,.83,0,1.66,0,2.49,0,.97,0,1.93,0,2.9,0,.1,0,.21,0,.31q0,.08,0,.15c0,.36,0,.71,0,1.07,0,.43,0,.87,0,1.3,0,.22,0,.44,0,.66,0,.2,0,.41,0,.61,0,.07,0,.15,0,.22,0,.99-.26,1.85-.97,2.56-.64.61-1.4.88-2.28.88-.06,0-.11,0-.17,0-.18,0-.37,0-.55,0-.13,0-.27,0-.4,0-.32,0-.65,0-.97,0-.26,0-.53,0-.79,0-.04,0-.07,0-.11,0-.08,0-.15,0-.23,0-.71,0-1.43,0-2.14,0-.61,0-1.22,0-1.83,0-.71,0-1.42,0-2.13,0h-.23s-.07,0-.11,0c-.26,0-.52,0-.79,0-.32,0-.64,0-.96,0-.16,0-.33,0-.49,0-.18,0-.35,0-.53,0-.05,0-.1,0-.15,0-.78,0-1.46-.29-2.04-.8t-.1-.08c-.52-.47-.84-1.18-.93-1.87,0-.19,0-.38,0-.57,0-.06,0-.11,0-.17,0-.16,0-.32,0-.48,0-.17,0-.34,0-.52,0-.41,0-.83,0-1.24,0-.2,0-.39,0-.59,0-.65,0-1.3,0-1.95,0-.17,0-.34,0-.51,0-.04,0-.08,0-.13,0-.68,0-1.36,0-2.03,0-.7,0-1.39,0-2.09,0-.39,0-.78,0-1.17,0-.33,0-.67,0-1,0-.17,0-.34,0-.51,0-1.18.09-2.06.95-2.94.04-.04.07-.08.11-.12.16-.17.33-.32.5-.48.23-.2.44-.41.65-.62.04-.04.08-.08.12-.12.13-.13.25-.25.38-.38.17-.17.33-.33.5-.5q.06-.06.11-.11c.2-.2.4-.39.61-.57.16-.15.32-.3.47-.46.07-.07.14-.14.21-.21.11-.11.22-.22.32-.33.11-.11.21-.22.32-.32.03-.03.06-.07.1-.1.33-.33.73-.55,1.15-.75.03-.01.06-.03.09-.04C6.94.07,7.27,0,7.65,0ZM7.36,7.75c-.42.49-.61,1.16-.6,1.8.06.7.32,1.39.84,1.87.61.49,1.27.76,2.07.73.74-.09,1.36-.4,1.86-.95.45-.59.68-1.28.62-2.02-.12-.79-.48-1.42-1.11-1.92-1.23-.83-2.69-.55-3.68.5ZM7.13,14.07s-.07.04-.1.05c-1.15.61-1.95,1.55-2.42,2.77-.08.3-.09.61.04.89.2.34.54.54.91.65.48.11.95.12,1.44.12.07,0,.13,0,.2,0,.18,0,.36,0,.54,0,.11,0,.23,0,.34,0,.35,0,.71,0,1.06,0,.41,0,.81,0,1.22,0,.32,0,.63,0,.95,0,.19,0,.38,0,.56,0,.18,0,.35,0,.53,0,.1,0,.19,0,.29,0,.52,0,.99-.08,1.37-.46.29-.36.39-.66.34-1.12-.35-1.2-1.34-2.21-2.4-2.84-.05-.03-.09-.06-.14-.08-.29-.16-.51-.2-.85-.12-.05.02-.11.03-.16.05-.73.22-1.47.27-2.22.14-.03,0-.07-.01-.1-.02-.17-.03-.33-.08-.49-.14-.34-.13-.59-.07-.91.1Z"/>
    </symbol>
    <symbol id="github" viewBox="0 0 24 24">
      <path d="M12 2a10 10 0 0 0-3.2 19.5c.5 0 .7-.2.7-.5v-1.7C6.7 20 6.1 18 6.1 18c-.4-1.2-1-1.5-1-1.5-1-.6 0-.6 0-.6 1 0 1.5 1 1.5 1 .9 1.6 2.4 1.1 3 .9 0-.7.3-1.1.6-1.4-2.2-.2-4.6-1-4.6-4.9 0-1.1.4-2 1-2.7 0-.3-.4-1.3.2-2.7 0 0 .8-.2 2.7 1a9.4 9.4 0 0 1 5 0c2-1.2 2.8-1 2.8-1 .5 1.4.1 2.4 0 2.7.7.7 1 1.6 1 2.7 0 3.8-2.3 4.7-4.5 5 .4.2.7.8.7 1.8V21c0 .3.2.6.7.5A10 10 0 0 0 12 2Z"/>
    </symbol>
    <symbol id="menu" viewBox="0 0 24 24">
      <path d="M22 6H2V4h20v2ZM2 13h16v-2H2v2Zm0 7h20v-2H2v2Z"/>
    </symbol>
    <symbol id="figma" viewBox="0 0 24 24">
      <path fill-rule="evenodd" d="M15 10a2 2 0 1 0 0 4 2 2 0 0 0 0-4Zm-2 5.5A4 4 0 0 0 17.6 9a4 4 0 0 0 .2-5.8A4 4 0 0 0 15 2H9a4 4 0 0 0-2.6 7 4 4 0 0 0 0 6A4 4 0 0 0 5 18a4 4 0 1 0 8 0v-2.5Zm-2 .5H9a2 2 0 1 0 2 2v-2ZM9 8h2V4H9a2 2 0 1 0 0 4Zm0 2a2 2 0 1 0 0 4h2v-4H9Zm4-2V4h2a2 2 0 0 1 0 4h-2Z"/>
    </symbol>
    <symbol id="copy" viewBox="0 0 24 24">
      <path d="M3 2h12v4H7v10H3V2Zm6 20V8h12v11l-3 3H9Z"/>
    </symbol>
    <symbol id="error" viewBox="0 0 24 24">
      <path d="M19.7 19H4.3L12 5l7.7 14ZM11.1 2.5l-9.4 17 1 1.5h18.7l.9-1.5-9.4-17H11ZM11 14v-4h2v4h-2Zm0 3v-2h2v2h-2Z"/>
    </symbol>
    <symbol id="arrow-left" viewBox="0 0 24 24">
      <path d="m9.8 19.2-6.5-6.5-.7-.7.7-.7 6.5-6.5 1.4 1.4L6.4 11H21v2H6.4l4.8 4.8-1.4 1.4Z"/>
    </symbol>
    <symbol id="check" viewBox="0 0 24 24">
      <path d="m20.2 7.2-10 10-.7.7-.7-.7-5-5 1.4-1.4L9.5 15l9.3-9.3 1.4 1.4Z"/>
    </symbol>
    <symbol id="link" viewBox="0 0 24 24">
      <path d="M9 4 8 5v2h2V6h10v7H10v-2H8v3l1 1h12l1-1V5l-1-1H9Zm2 4H3L2 9v9l1 1h12l1-1v-2h-2v1H4v-7h10v2h2V9l-1-1h-4Z"/>
    </symbol>
    <symbol id="close" viewBox="0 0 24 24">
      <path d="M19 6.4 17.6 5 12 10.6 6.4 5 5 6.4l5.6 5.6L5 17.6 6.4 19l5.6-5.6 5.6 5.6 1.4-1.4-5.6-5.6L19 6.4Z"/>
    </symbol>
    <symbol id="pause" viewBox="0 0 24 24">
      <path d="M6 19h4V5H6v14Zm8-14v14h4V5h-4Z"/>
    </symbol>
    <symbol id="play" viewBox="0 0 24 24">
      <path d="M8 5v14l11-7L8 5Z"/>
    </symbol>
  </defs>
</svg>